<?xml version="1.0" standalone="no"?>
<!DOCTYPE svg PUBLIC "-//W3C//DTD SVG 20010904//EN"
 "http://www.w3.org/TR/2001/REC-SVG-20010904/DTD/svg10.dtd">
<svg version="1.0" xmlns="http://www.w3.org/2000/svg"
 width="300.000000pt" height="300.000000pt" viewBox="0 0 300.000000 300.000000"
 preserveAspectRatio="xMidYMid meet">
<metadata>
Created by potrace 1.14, written by Peter Selinger 2001-2017
</metadata>
<g transform="translate(0.000000,300.000000) scale(0.100000,-0.100000)"
fill="#000000" stroke="none">
<path d="M1220 2678 c-361 -27 -683 -216 -884 -518 -62 -92 -99 -170 -139
-291 -46 -137 -52 -182 -51 -384 0 -143 4 -184 23 -255 80 -303 244 -542 488
-706 201 -136 412 -200 656 -202 317 -2 601 112 825 329 219 213 339 475 359
782 4 62 2 91 -7 102 -11 13 -83 15 -533 15 l-520 0 364 365 c200 201 365 374
367 385 8 47 -191 200 -363 279 -165 77 -385 114 -585 99z m299 -107 c30 -6
73 -16 95 -23 23 -6 43 -12 46 -13 90 -20 288 -131 359 -201 13 -13 28 -24 33
-24 5 0 -14 -23 -42 -50 -56 -55 -48 -55 -113 -3 -96 77 -276 156 -409 179
-305 53 -627 -49 -838 -266 -83 -85 -102 -110 -147 -189 -83 -146 -124 -294
-128 -460 -2 -82 15 -227 29 -249 3 -5 7 -21 10 -36 14 -79 75 -200 152 -301
202 -268 512 -405 848 -374 309 29 593 217 739 489 29 55 98 229 96 245 -1 11
13 121 17 138 5 14 17 17 73 17 l68 0 -4 -42 c-35 -380 -272 -719 -613 -880
-167 -79 -304 -108 -495 -104 -202 4 -363 49 -525 146 -229 137 -396 348 -479
600 -31 96 -34 112 -46 210 -11 89 -6 249 10 330 54 269 231 536 455 687 128
86 325 165 445 178 33 4 61 8 63 10 8 7 252 -4 301 -14z m9 -246 c103 -27 267
-107 322 -156 l36 -31 -304 -302 c-310 -308 -333 -336 -296 -367 11 -9 129
-12 450 -12 l435 0 -5 -51 c-13 -121 -77 -288 -150 -390 -52 -73 -134 -154
-210 -207 -38 -27 -74 -49 -79 -49 -6 0 -18 -6 -26 -14 -24 -22 -187 -74 -262
-83 -218 -29 -442 29 -624 161 -121 88 -254 273 -300 417 -51 163 -53 366 -4
508 11 31 21 61 22 66 2 6 18 39 36 75 93 185 263 335 465 411 150 56 341 65
494 24z"/>
<path d="M1355 2190 c-72 -30 -107 -141 -66 -208 58 -91 189 -96 249 -8 47 69
15 181 -60 211 -42 16 -91 19 -123 5z m100 -104 c37 -37 20 -71 -43 -82 -19
-3 -42 25 -42 51 0 22 32 55 53 55 4 0 19 -11 32 -24z"/>
<path d="M875 2148 c-51 -11 -109 -58 -137 -111 -36 -72 -12 -184 52 -234 117
-93 289 -35 319 107 13 62 5 106 -30 157 -46 66 -125 97 -204 81z m85 -103
c64 -33 79 -101 34 -154 -50 -59 -134 -47 -168 24 -23 47 -8 95 37 124 38 25
58 26 97 6z"/>
<path d="M1012 1714 c-113 -57 -115 -204 -5 -260 131 -66 261 79 186 207 -34
57 -122 83 -181 53z m98 -103 c22 -41 -1 -81 -45 -81 -38 0 -60 61 -33 88 19
19 66 15 78 -7z"/>
<path d="M750 1371 c-19 -10 -45 -30 -57 -43 -77 -82 -60 -235 32 -295 142
-93 316 4 310 173 -2 61 -25 105 -78 148 -33 26 -48 31 -105 33 -51 3 -75 -1
-102 -16z m163 -111 c87 -96 -52 -229 -144 -137 -70 70 -12 186 86 172 17 -3
42 -19 58 -35z"/>
<path d="M1385 1332 c-84 -18 -134 -128 -94 -210 48 -97 194 -105 251 -14 70
113 -27 251 -157 224z m69 -108 c19 -18 21 -55 4 -72 -7 -7 -24 -12 -38 -12
-45 0 -63 37 -40 81 13 23 53 25 74 3z"/>
<path d="M1840 1332 c-119 -19 -153 -204 -49 -266 42 -25 99 -27 146 -6 76 34
105 143 55 209 -38 52 -90 73 -152 63z m62 -104 c40 -33 19 -88 -32 -88 -45 0
-66 52 -34 84 19 19 45 20 66 4z"/>
<path d="M1190 1012 c-77 -12 -133 -109 -107 -187 47 -144 254 -130 282 18 19
100 -69 184 -175 169z m61 -102 c22 -12 26 -59 7 -78 -19 -19 -66 -15 -78 7
-14 27 -13 47 6 65 18 19 38 20 65 6z"/>
<path d="M2050 2089 c-360 -360 -420 -423 -414 -442 3 -12 12 -27 20 -33 10
-8 185 -11 595 -11 491 0 582 2 595 14 9 10 14 36 14 81 -1 199 -76 432 -197
615 -51 76 -161 197 -181 197 -6 0 -201 -189 -432 -421z m518 198 c61 -82 129
-224 158 -327 17 -61 34 -154 36 -200 l3 -55 -67 -1 c-76 -2 -71 -8 -83 106
-14 126 -91 305 -181 422 l-45 58 47 50 48 51 21 -23 c11 -13 40 -49 63 -81z
m-173 -167 c24 -36 54 -92 68 -125 34 -81 69 -220 65 -259 l-3 -31 -363 -1
-362 -2 257 259 c293 296 260 280 338 159z"/>
<path d="M2175 2050 c-74 -31 -110 -122 -78 -200 22 -51 88 -89 147 -83 109
12 165 137 103 230 -34 51 -117 76 -172 53z m93 -103 c18 -14 14 -52 -8 -72
-31 -28 -74 -10 -78 32 -5 51 43 73 86 40z"/>
</g>
</svg>
